#N canvas 755 43 523 362 10;
#X obj 362 257 *~;
#X obj 383 174 hsl 128 15 0 127 0 0 empty empty empty -2 -8 0 10 -262144
-1 -1 1800 1;
#X floatatom 381 194 5 0 0 0 - - -, f 5;
#X obj 381 234 line~;
#X msg 381 212 \$1 50;
#X obj 359 300 dac~;
#X obj 299 173 samphold~;
#X obj 259 123 osc~ 330;
#X obj 259 146 *~ 0.1;
#X obj 359 146 phasor~;
#X obj 358 34 noise~;
#X obj 358 57 expr~ ($v1 + 1) / 2;
#X obj 359 99 samphold~;
#X obj 359 121 expr~ $v1 * 1500 + 10;
#X obj 300 202 lop~ 100;
#X obj 420 79 receive~ b1;
#X connect 0 0 5 0;
#X connect 0 0 5 1;
#X connect 1 0 2 0;
#X connect 2 0 4 0;
#X connect 3 0 0 1;
#X connect 4 0 3 0;
#X connect 6 0 14 0;
#X connect 7 0 8 0;
#X connect 8 0 6 0;
#X connect 9 0 6 1;
#X connect 10 0 11 0;
#X connect 11 0 12 0;
#X connect 12 0 13 0;
#X connect 13 0 9 0;
#X connect 14 0 0 0;
#X connect 15 0 12 1;
