#N canvas 1075 29 843 1049 10;
#X obj 339 286 dac~;
#X obj 339 249 *~ 0.2;
#X obj 338 207 osc~ 300;
#X obj 409 207 hsl 128 15 0 1 0 0 empty empty Amplitude -2 -8 0 10
-262144 -1 -1 0 1;
#X obj 341 167 hsl 128 15 60 600 0 0 empty empty Frequency -2 -8 0
10 -262144 -1 -1 12700 1;
#X floatatom 338 186 5 0 0 0 - - -, f 5;
#X floatatom 406 226 5 0 0 0 - - -, f 5;
#X connect 1 0 0 0;
#X connect 1 0 0 1;
#X connect 2 0 1 0;
#X connect 3 0 6 0;
#X connect 4 0 5 0;
#X connect 5 0 2 0;
#X connect 6 0 1 1;
