#N canvas 601 435 677 166 10;
#X obj 1 123 phasor~ 1;
#X obj 1 102 expr~ 1 / $v1;
#X obj 1 144 expr~ $v1 * $v2 * 44100 + ($v3 * 44100);
#X obj 1 18 inlet~;
#X obj 1 38 s~ \$0-length;
#X obj 1 81 r~ \$0-length;
#X obj 137 121 r~ \$0-length;
#X obj 271 120 r~ \$0-offset;
#X obj 94 18 inlet~;
#X obj 95 38 s~ \$0-offset;
#X obj 2 186 outlet~;
#X obj 2 164 tabread4~ \$1;
#X connect 0 0 2 0;
#X connect 1 0 0 0;
#X connect 2 0 11 0;
#X connect 3 0 4 0;
#X connect 5 0 1 0;
#X connect 6 0 2 1;
#X connect 7 0 2 2;
#X connect 8 0 9 0;
#X connect 11 0 10 0;
