#N canvas 601 436 677 362 10;
#N canvas 0 50 450 250 (subpatch) 0;
#X array buffer 3.56403e+06 float 2;
#X coords 0 1 3.56403e+06 -1 200 140 1 0 0;
#X restore 368 140 graph;
#X obj -21 313 dac~;
#X obj -21 276 *~ 0.2;
#X msg 10 353 read -resize cardinal.wav buffer;
#X obj 10 375 soundfiler;
#X obj 79 137 rand~ 0.5 2 1;
#X obj -21 137 rand~ 0.2 2 1;
#X obj -21 161 play~ buffer;
#X obj 108 203 rand~ 0.5 2 1;
#X obj 8 203 rand~ 0.2 2 1;
#X obj 8 227 play~ buffer;
#X connect 2 0 1 0;
#X connect 2 0 1 1;
#X connect 3 0 4 0;
#X connect 5 0 7 1;
#X connect 6 0 7 0;
#X connect 7 0 2 0;
#X connect 8 0 10 1;
#X connect 9 0 10 0;
#X connect 10 0 2 0;
