#N canvas 601 436 677 362 10;
#N canvas 0 50 450 250 (subpatch) 0;
#X array buffer 3.56403e+06 float 2;
#X coords 0 1 3.56403e+06 -1 200 140 1 0 0;
#X restore 385 65 graph;
#X obj 8 187 tabread4~ buffer;
#X obj 8 278 dac~;
#X obj 8 241 *~ 0.2;
#X obj 397 243 hsl 128 15 0 1 0 0 empty empty Amplitude -2 -8 0 10
-262144 -1 -1 1200 1;
#X floatatom 394 262 5 0 0 0 - - -, f 5;
#X obj 8 145 phasor~ 1;
#X msg 10 353 read -resize cardinal.wav buffer;
#X obj 10 375 soundfiler;
#X obj -20 25 hsl 128 15 0.5 3 0 0 empty empty Playback_Length_(Seconds)
-2 -8 0 10 -262144 -1 -1 12700 1;
#X floatatom -23 44 5 0 0 0 - - -, f 5;
#X obj 152 25 hsl 128 15 0 3 0 0 empty empty Playback_Offset_(Seconds)
-2 -8 0 10 -262144 -1 -1 600 1;
#X obj -23 61 sig~;
#X obj 8 124 expr~ 1 / $v1;
#X floatatom 149 43 5 0 0 0 - - -, f 5;
#X obj 8 166 expr~ $v1 * $v2 * 44100 + ($v3 * 44100);
#X obj 149 60 sig~;
#X obj -23 80 s~ length;
#X obj 144 144 r~ length;
#X obj 8 103 r~ length;
#X obj 149 80 s~ offset;
#X obj 219 144 r~ offset;
#X obj 394 280 s amp;
#X obj 47 219 r amp;
#X connect 1 0 3 0;
#X connect 3 0 2 0;
#X connect 3 0 2 1;
#X connect 4 0 5 0;
#X connect 5 0 22 0;
#X connect 6 0 15 0;
#X connect 7 0 8 0;
#X connect 9 0 10 0;
#X connect 10 0 12 0;
#X connect 11 0 14 0;
#X connect 12 0 17 0;
#X connect 13 0 6 0;
#X connect 14 0 16 0;
#X connect 15 0 1 0;
#X connect 16 0 20 0;
#X connect 18 0 15 1;
#X connect 19 0 13 0;
#X connect 21 0 15 2;
#X connect 23 0 3 1;
